# xmcd
#
# Track frame offsets: 
#        150
#        20550
#        36165
#        51697
#        80584
#        104360
#        124385
#        139786
#        157112
#        171623
#        183643
#        199768
#        213241
#
# Disc length: 3070 seconds
#
# Revision: 0
# Processed by: cddbd v1.5.2PL0 Copyright (c) Steve Scherf et al.
# Submitted via: ExactAudioCopy v1.3
#
DISCID=cb0bfc0d
DTITLE=Chris Bell and 100% Blues - Baptized By The Blues
DYEAR=2017
DGENRE=Blues
TTITLE0=Baptized By The Blues
TTITLE1=Paycheck To Paycheck
TTITLE2=Whiskey Ain't Workin'
TTITLE3=Elevator To Heaven 2017
TTITLE4=I'm Your Man
TTITLE5=Keep On Movin'
TTITLE6=Second Wind
TTITLE7=Again
TTITLE8=Ali Shuffle (Albert Collins Tribute)
TTITLE9=Shantytown
TTITLE10=Come Back Home
TTITLE11=Doin' Time
TTITLE12=Drinks Are For Free
EXTD=
EXTT0=
EXTT1=
EXTT2=
EXTT3=
EXTT4=
EXTT5=
EXTT6=
EXTT7=
EXTT8=
EXTT9=
EXTT10=
EXTT11=
EXTT12=
PLAYORDER=
